<svg class="svg-icon" viewBox="0 0 1024 1024" version="1.1" xmlns="http://www.w3.org/2000/svg"><path d="M512 0C229.665391 0 0 229.665391 0 512 0 614.578087 30.230261 713.594435 87.462957 798.274783 97.792 813.568 118.53913 817.574957 133.832348 807.268174 149.103304 796.93913 153.132522 776.169739 142.803478 760.898783 93.072696 687.282087 66.782609 601.221565 66.782609 512 66.782609 266.50713 266.50713 66.782609 512 66.782609 757.49287 66.782609 957.217391 266.50713 957.217391 512 957.217391 757.49287 757.49287 957.217391 512 957.217391 420.685913 957.217391 332.933565 929.792 258.248348 877.879652 243.044174 867.350261 222.274783 871.067826 211.767652 886.227478 201.238261 901.36487 204.978087 922.178783 220.115478 932.685913 306.064696 992.434087 406.995478 1024 512 1024 794.334609 1024 1024 794.334609 1024 512 1024 229.665391 794.334609 0 512 0ZM512.004452 237.895235C475.118191 237.895235 445.221843 267.791583 445.221843 304.677843 445.221843 341.564104 475.118191 371.460452 512.004452 371.460452 548.890713 371.460452 578.787061 341.564104 578.787061 304.677843 578.787061 267.791583 548.890713 237.895235 512.004452 237.895235ZM512 429.935304C481.257739 429.935304 456.347826 454.845217 456.347826 485.587478L456.347826 752.717913C456.347826 783.460174 481.257739 808.370087 512 808.370087 542.742261 808.370087 567.652174 783.460174 567.652174 752.717913L567.652174 485.587478C567.652174 454.845217 542.742261 429.935304 512 429.935304Z"  /></svg>