<svg class="svg-icon" viewBox="0 0 1024 1024" version="1.1" xmlns="http://www.w3.org/2000/svg"><path d="M928 352h-224l140.48-165.12 5.12-6.72a96 96 0 0 0-156.8-111.36L491.52 352H96a64 64 0 0 0-16.32 128L128 771.2a234.56 234.56 0 0 0 224 188.8h320a234.56 234.56 0 0 0 224-188.8l48.32-291.2a64 64 0 0 0-16.32-128zM375.04 782.72a48 48 0 0 1-33.92 17.92h-14.72a53.44 53.44 0 0 1-52.48-45.76L256 611.84a48 48 0 0 1 44.16-54.72h10.56a53.44 53.44 0 0 1 56.64 45.76l19.2 144a48 48 0 0 1-11.52 35.84z m192-32A49.92 49.92 0 0 1 517.44 800h-10.88a49.92 49.92 0 0 1-49.6-49.6V608a49.92 49.92 0 0 1 49.6-49.6h10.88A49.92 49.92 0 0 1 567.04 608z m200.96-137.6l-18.88 141.44a52.48 52.48 0 0 1-51.2 45.44h-14.72A47.36 47.36 0 0 1 640 744.32l18.88-141.12a52.48 52.48 0 0 1 55.68-44.8h10.56A47.36 47.36 0 0 1 768 613.12z" fill="#231F20" /></svg>