<svg class="svg-icon" viewBox="0 0 1024 1024" version="1.1" xmlns="http://www.w3.org/2000/svg"><path d="M508.730537 591.71146c0 0-84.927251 87.268576-207.017914 192.793958-53.504588 46.286186-131.213437 136.526443-132.700301 157.967778-1.484817 21.449521 30.786167-14.223956 47.13246-36.518728 16.350386-22.083971 100.43341-115.503641 128.673591-139.288347C389.19507 729.089293 456.710766 655.621025 508.730537 591.71146L508.730537 591.71146zM508.730537 591.71146"  /><path d="M329.952804 470.050586c0 0-101.488439 105.741299-95.755878 195.129142 5.733585 89.388866 27.809369 120.809483 43.527352 110.831224 15.71082-9.978259 78.559217-60.087517 69.215408-105.741299C337.810772 624.409163 311.271326 506.569314 329.952804 470.050586L329.952804 470.050586zM329.952804 470.050586"  /><path d="M444.186522 345.838609c0 0-90.664929 69.220524-82.170464 190.882422 8.492418 121.659851 47.77305 122.935913 47.77305 122.935913s64.97585-52.870138 59.236126-105.741299C463.292672 501.047554 429.960519 387.880121 444.186522 345.838609L444.186522 345.838609zM444.186522 345.838609"  /><path d="M533.575388 266.429025c0 0-62.84942 75.79936-63.908542 167.31261-1.067308 91.515297 50.319036 125.06439 59.027371 129.309064 8.703219 4.246721 57.109696-35.038004 50.743708-107.865683C573.064774 382.357338 533.575388 326.515518 533.575388 266.429025L533.575388 266.429025zM533.575388 266.429025"  /><path d="M562.876738 584.494081c0 0 2.76088-74.954109 87.903026-105.099686 85.142146-30.15274 97.882308 7.852852 181.538613-48.623417 0 0-36.518728 119.114888-154.998143 153.723104C591.326696 609.547687 562.876738 584.494081 562.876738 584.494081L562.876738 584.494081zM562.876738 584.494081"  /><path d="M721.481012 595.532485c0 0-70.701249 33.972742-130.788765 33.123398-60.08854-0.635473-114.234741 17.83725-147.146315 86.418208 0 0 8.492418 42.889833 90.028433 22.081924C615.105263 716.350155 688.573531 658.806577 721.481012 595.532485L721.481012 595.532485zM721.481012 595.532485"  /><path d="M322.734402 814.441217c0 0 39.280632-71.551616 115.077945-64.335261 75.804477 7.223518 109.352547 28.665877 188.547237 14.226003 0 0-108.711957 100.858082-193.002712 94.276177C349.065094 852.450902 322.734402 814.441217 322.734402 814.441217L322.734402 814.441217zM322.734402 814.441217"  /><path d="M589.206406 332.249103c0 0-7.857968 9.342786-2.76088 13.589506 5.097088 4.246721 77.073376-94.270037 101.488439-176.442548C687.932941 169.396061 625.724111 285.11562 589.206406 332.249103L589.206406 332.249103zM589.206406 332.249103"  /><path d="M765.432013 426.52528c0 0-7.216355 9.762341-1.910513 13.800307 5.311982 4.036943 71.13206-98.942453 90.239234-182.598758C853.760734 257.725806 798.97906 377.050472 765.432013 426.52528L765.432013 426.52528zM765.432013 426.52528"  /><path d="M755.028059 108.459201c0 0-40.765449 133.550669-138.012284 267.955798 0 0-10.188037 31.422663 19.11229 4.246721C665.639193 353.696578 749.296521 170.672124 755.028059 108.459201L755.028059 108.459201zM755.028059 108.459201"  /><path d="M832.102459 74.912154c0 0-47.13246 160.305009-175.166485 339.933109 0 0-15.07637 18.687618-5.731538 26.539446 9.344832 7.857968 95.755878-124.422777 118.689193-183.233208C792.821827 199.332884 827.855738 104.21248 832.102459 74.912154L832.102459 74.912154zM832.102459 74.912154"  /><path d="M855.036797 162.814156c0 0-98.516758 217.847563-157.544129 278.996249 0 0-5.314029 23.143093 19.741623 6.157233C742.28892 430.980755 825.100998 246.471484 855.036797 162.814156L855.036797 162.814156zM855.036797 162.814156"  /></svg>