<svg class="svg-icon" viewBox="0 0 1024 1024" version="1.1" xmlns="http://www.w3.org/2000/svg"><path d="M590.8 269.6h-157.8c-9.8 0-17.6-7.8-17.6-17.6s7.8-17.6 17.6-17.6h157.8c9.8 0 17.6 7.8 17.6 17.6 0.2 9.8-7.8 17.6-17.6 17.6zM586.6 272.6h-149.2L372.4 452c-2.8 7.8-4.2 16-4.2 24.4v261.8c0 28.4 23 51.4 51.4 51.4h185.2c28.4 0 51.4-23 51.4-51.4V476.4c0-8.4-1.4-16.6-4.2-24.4l-65.4-179.4z" fill="#FFFFFF" /><path d="M656 476.4v261.8c0 28.4-23 51.4-51.4 51.4h-185.2c-28.4 0-51.4-23-51.4-51.4V476.4c0-8.4 1.4-16.6 4.4-24.4l28.2-77.8h223l28.2 77.8c2.8 7.8 4.2 16 4.2 24.4z" fill="#CDCCCC" /><path d="M656 476.4v261.8c0 28.4-23 51.4-51.4 51.4h-185.2c-28.4 0-51.4-23-51.4-51.4V476.4c0-8.4 1.4-16.6 4.4-24.4l28.2-77.8h223l28.2 77.8c2.8 7.8 4.2 16 4.2 24.4z" fill="#CDCCCC" /><path d="M590.8 280.6h-157.8c-15.8 0-28.6-12.8-28.6-28.6s12.8-28.6 28.6-28.6h157.8c15.8 0 28.6 12.8 28.6 28.6s-12.8 28.6-28.6 28.6z m-157.6-35.2c-3.6 0-6.6 3-6.6 6.6 0 3.6 3 6.6 6.6 6.6h157.8c3.6 0 6.6-3 6.6-6.6 0-3.6-3-6.6-6.6-6.6h-157.8z" fill="#3A3033" /><path d="M604.6 800.4h-185.2c-34.4 0-62.2-28-62.2-62.2V476.4c0-9.6 1.6-19 5-28l65-179.4 10.2-7.2h149.4l10.2 7.2 65 179.4c3.2 9 5 18.4 5 28v261.8c0 34.4-28 62.2-62.4 62.2z m-159.6-517l-62.4 172.2c-2.4 6.6-3.6 13.6-3.6 20.6V738c0 22.2 18.2 40.4 40.4 40.4h185.2c22.2 0 40.4-18.2 40.4-40.4V476.4c0-7-1.2-14-3.6-20.6l-62.4-172.2h-134z" fill="#3A3033" /><path d="M368 465.4h240.4v21.8H368z" fill="#3A3033" /></svg>