<svg class="svg-icon" viewBox="0 0 1024 1024" version="1.1" xmlns="http://www.w3.org/2000/svg"><path d="M961.92 295.78666667C947.136 161.96266667 839.264 54.08 705.42933333 39.296c-80.11733333-8.82133333-157.97333333 14.432-219.33866666 65.504-60.59733333 50.432-98.61333333 124.288-104.30933334 202.63466667-0.46933333 6.496-3.63733333 13.32266667-8.90666666 19.2-6.16533333 6.85866667-14.336 11.02933333-22.98666667 11.72266666C176.50133333 352 52.26666667 503.37066667 60.88533333 690.47466667c7.904 171.97866667 122.44266667 288.13866667 291.776 295.92533333 5.71733333 0.26666667 11.38133333 0.40533333 17.024 0.40533333 177.29066667 0 319.456-128.52266667 341.152-311.456l0.39466667-3.40266666-5.12-45.45066667c-0.58666667-5.17333333 3.89333333-8.65066667 8.384-9.30133333C870.64533333 594.57066667 979.33866667 453.408 961.92 295.78666667zM429.29066667 754.53866667c-83.616-20.11733333-137.54666667-70.4-162.64533334-152.032 39.648-46.34666667 98.38933333-86.74133333 185.6-108.8l3.62666667-0.576c37.68533333-5.49333333 78.41066667-25.888 94.72-135.424 2.35733333-15.85066667 10.69866667-32.576 22.80533333-49.35466667a329.1936 329.1936 0 0 0 133.65333334 112.8c-13.408 13.632-27.85066667 22.69866667-43.18933334 24.98133333-109.504 16.32-129.89866667 57.024-135.40266666 94.70933334l-1.04533334 7.66933333c-4.352 92.55466667-45.376 158.784-98.12266666 206.02666667z m-242.048 102.82666666c-1.92-30.69866667-2.272-113.87733333 39.22133333-194.85866666 29.67466667 63.95733333 77.856 109.30133333 143.57333333 135.28533333-68.21333333 40.82133333-140.352 58.83733333-176.192 65.792-2.19733333-2.06933333-4.49066667-4.05333333-6.60266666-6.21866667zM614.72 263.37066667c58.73066667-53.22666667 143.15733333-99.264 193.52533333-110.73066667-4.91733333 54.15466667-28.93866667 151.424-66.09066666 219.24266667-52.896-21.78133333-97.536-59.744-127.43466667-108.512zM354.53866667 397.20533333c23.82933333-1.89866667 45.94133333-12.94933333 62.28266666-31.15733333 13.952-15.584 22.42133333-34.86933333 23.84-54.336 4.53333333-62.44266667 34.86933333-121.312 83.18933334-161.536 42.112-35.06133333 94.03733333-53.664 148.49066666-53.664 8.81066667 0 17.696 0.48 26.61333334 1.48266667 17.90933333 1.97333333 35.168 6.208 51.65866666 12.128-51.14666667 20.18133333-112.032 54.61333333-162.03733333 96.75733333-4.21333333-12.78933333-7.744-25.93066667-10.06933333-39.57333333-2.76266667-16.064-18.02666667-26.944-34.06933334-24.11733334-16.064 2.752-26.88 17.99466667-24.128 34.08 4.46933333 26.18666667 12.18133333 51.04 22.22933334 74.53866667-26.54933333 30.688-45.32266667 63.72266667-50.31466667 97.22666667-12.064 80.896-32.59733333 83.89333333-44.864 85.68533333-2.13333333 0.33066667-4.128 0.61866667-7.776 1.36533333-81.77066667 20.66133333-142.048 55.69066667-186.73066667 97.14133334-1.024-9.70666667-1.84533333-19.63733333-2.31466666-29.97333334-0.736-16.27733333-14.592-29.6-30.80533334-28.16-16.288 0.71466667-28.90666667 14.50666667-28.17066666 30.80533334 1.36533333 30.50666667 5.25866667 58.63466667 11.08266666 84.88533333-41.49333333 59.43466667-60.34133333 123.98933333-68.512 176.768-7.968-24.384-12.93866667-50.99733333-14.26133333-79.79733333-7.12533333-154.54933333 93.76-279.44533333 234.66666667-290.54933334z m351.47733333 161.55733334c-36.928 5.38666667-62.656 38.03733333-58.57066667 74.336l4.36266667 38.61333333C631.57333333 829.54666667 510.41066667 934.41066667 355.37066667 927.43466667c-34.784-1.6-66.50666667-8.58666667-94.63466667-20.36266667 52.256-15.63733333 121.216-43.104 182.37866667-89.39733333 24.77866667 4.05333333 51.15733333 6.272 79.424 6.272 5.96266667 0 12.02133333-0.096 18.13333333-0.288 16.29866667-0.48 29.12-14.09066667 28.64-30.38933334-0.49066667-16.29866667-14.368-30.00533333-30.38933333-28.61866666-13.024 0.36266667-25.472 0.17066667-37.6-0.352 46.432-52.42666667 80.33066667-121.20533333 85.00266666-211.12533334 0.20266667-1.216 0.384-2.47466667 0.576-3.808 1.792-12.26666667 4.8-32.81066667 85.68533334-44.85333333 36.512-5.42933333 67.57333333-29.376 93.504-62.85866667 25.632 6.32533333 52.288 9.90933333 79.76533333 9.90933334 16.30933333 0 29.52533333-13.22666667 29.52533333-29.52533334S862.15466667 392.53333333 845.84533333 392.53333333c-15.76533333 0-31.22133333-1.42933333-46.29333333-4.01066666 32.43733333-62.464 52.96-137.728 62.464-193.89866667 22.16533333 31.18933333 36.84266667 67.97866667 41.22666667 107.648 13.888 125.80266667-72.736 238.464-197.22666667 256.49066667z" fill="#000000" /></svg>